<svg xmlns="http://www.w3.org/2000/svg" xmlns:svgjs="http://svgjs.com/svgjs" xmlns:xlink="http://www.w3.org/1999/xlink" width="288" height="288"><svg xmlns="http://www.w3.org/2000/svg" width="288" height="288" enable-background="new 0 0 64 64" viewBox="0 0 64 64"><path fill="#fbc24f" d="M59.68,60.99H4.32C1.94,60.99,0,59.05,0,56.67V7.33c0-2.38,1.94-4.32,4.32-4.32h55.35c2.38,0,4.32,1.94,4.32,4.32v49.33
			C64,59.05,62.06,60.99,59.68,60.99z M4.32,4.95c-1.31,0-2.38,1.07-2.38,2.38v49.33c0,1.31,1.07,2.38,2.38,2.38h55.35
			c1.31,0,2.38-1.07,2.38-2.38V7.33c0-1.31-1.07-2.38-2.38-2.38H4.32z" class="color000 svgShape"/><path fill="#fbc24f" d="M10.58 55.56c-1.47 0-2.67-1.2-2.67-2.67V31.91c0-.54.43-.97.97-.97s.97.43.97.97v20.98c0 .41.33.73.73.73.41 0 .73-.33.73-.73V31.91c0-.54.43-.97.97-.97.54 0 .97.43.97.97v20.98C13.25 54.36 12.05 55.56 10.58 55.56zM12.28 25.31c-.54 0-.97-.43-.97-.97V11.11c0-.41-.33-.73-.73-.73-.41 0-.73.33-.73.73v13.22c0 .54-.43.97-.97.97S7.9 24.87 7.9 24.34V11.11c0-1.47 1.2-2.67 2.67-2.67 1.47 0 2.67 1.2 2.67 2.67v13.22C13.25 24.87 12.82 25.31 12.28 25.31z" class="color000 svgShape"/><path fill="#fbc24f" d="M14.06 32.87H7.11c-.54 0-.97-.43-.97-.97v-7.56c0-.54.43-.97.97-.97h6.96c.54 0 .97.43.97.97v7.56C15.03 32.44 14.6 32.87 14.06 32.87zM8.07 30.93h5.02v-5.62H8.07V30.93zM24.86 55.56c-1.47 0-2.67-1.2-2.67-2.67V41.6c0-.54.43-.97.97-.97s.97.43.97.97v11.28c0 .41.33.73.73.73.4 0 .73-.33.73-.73V41.6c0-.54.43-.97.97-.97.54 0 .97.43.97.97v11.28C27.53 54.36 26.33 55.56 24.86 55.56zM26.56 35c-.54 0-.97-.43-.97-.97V11.11c0-.41-.33-.73-.73-.73-.41 0-.73.33-.73.73v22.92c0 .54-.43.97-.97.97s-.97-.43-.97-.97V11.11c0-1.47 1.2-2.67 2.67-2.67 1.47 0 2.67 1.2 2.67 2.67v22.92C27.53 34.57 27.1 35 26.56 35z" class="color000 svgShape"/><path fill="#fbc24f" d="M28.34 42.57h-6.96c-.54 0-.97-.43-.97-.97v-7.56c0-.54.43-.97.97-.97h6.96c.54 0 .97.43.97.97v7.56C29.31 42.13 28.88 42.57 28.34 42.57zM22.35 40.63h5.02v-5.62h-5.02V40.63zM39.13 55.56c-1.47 0-2.67-1.2-2.67-2.67V24.15c0-.54.43-.97.97-.97.54 0 .97.43.97.97v28.74c0 .41.33.73.73.73.41 0 .73-.33.73-.73V24.15c0-.54.43-.97.97-.97.54 0 .97.43.97.97v28.74C41.81 54.36 40.61 55.56 39.13 55.56zM40.84 17.55c-.54 0-.97-.43-.97-.97v-5.47c0-.41-.33-.73-.73-.73-.4 0-.73.33-.73.73v5.47c0 .54-.43.97-.97.97-.54 0-.97-.43-.97-.97v-5.47c0-1.47 1.2-2.67 2.67-2.67 1.47 0 2.67 1.2 2.67 2.67v5.47C41.81 17.11 41.38 17.55 40.84 17.55z" class="color000 svgShape"/><path fill="#fbc24f" d="M42.62 25.11h-6.96c-.54 0-.97-.43-.97-.97v-7.56c0-.54.43-.97.97-.97h6.96c.54 0 .97.43.97.97v7.56C43.59 24.68 43.15 25.11 42.62 25.11zM36.63 23.17h5.02v-5.62h-5.02V23.17zM53.41 55.56c-1.47 0-2.67-1.2-2.67-2.67v-6.43c0-.54.43-.97.97-.97.54 0 .97.43.97.97v6.43c0 .41.33.73.73.73.41 0 .73-.33.73-.73v-6.43c0-.54.43-.97.97-.97s.97.43.97.97v6.43C56.09 54.36 54.89 55.56 53.41 55.56zM55.12 39.85c-.54 0-.97-.43-.97-.97V11.11c0-.41-.33-.73-.73-.73-.41 0-.73.33-.73.73v27.77c0 .54-.43.97-.97.97-.54 0-.97-.43-.97-.97V11.11c0-1.47 1.2-2.67 2.67-2.67 1.47 0 2.67 1.2 2.67 2.67v27.77C56.09 39.42 55.65 39.85 55.12 39.85z" class="color000 svgShape"/><path fill="#fbc24f" d="M56.9,47.42h-6.96c-0.54,0-0.97-0.43-0.97-0.97v-7.56c0-0.54,0.43-0.97,0.97-0.97h6.96c0.54,0,0.97,0.43,0.97,0.97v7.56
				C57.87,46.98,57.43,47.42,56.9,47.42z M50.91,45.48h5.02v-5.62h-5.02V45.48z" class="color000 svgShape"/></svg></svg>