<svg xmlns="http://www.w3.org/2000/svg" xmlns:svgjs="http://svgjs.com/svgjs" xmlns:xlink="http://www.w3.org/1999/xlink" width="288" height="288"><svg xmlns="http://www.w3.org/2000/svg" width="288" height="288" viewBox="0 0 16 16"><path d="M8.508 0c-1.93 0-3.5 1.57-3.5 3.5V9c0 1.76 1.308 3.204 3 3.45V15h-2.5v1h6v-1h-2.5v-2.55c1.691-.246 3-1.691 3-3.45V3.5c0-1.93-1.57-3.5-3.5-3.5zm0 1c1.393 0 2.5 1.106 2.5 2.5V9c0 1.394-1.107 2.5-2.5 2.5a2.484 2.484 0 0 1-2.5-2.5V3.5c0-1.394 1.106-2.5 2.5-2.5zM1.813 2.998a6.002 6.002 0 0 0 0 6l.865-.5a4.998 4.998 0 0 1 0-5l-.865-.5zm13.392 0-.867.5a4.998 4.998 0 0 1 0 5l.867.5a6.002 6.002 0 0 0 0-6zM3.344 4.061a6 6 0 0 0-.028 3.87l.95-.316a5 5 0 0 1 .021-3.226l-.943-.328zm10.33 0-.944.328a5 5 0 0 1 .022 3.226l.95.317a6 6 0 0 0-.028-3.871z" color="#000" font-family="sans-serif" font-weight="400" overflow="visible" style="line-height:normal;text-indent:0;text-align:start;text-decoration-line:none;text-decoration-style:solid;text-decoration-color:#000;text-transform:none;block-progression:tb;white-space:normal;isolation:auto;mix-blend-mode:normal;solid-color:#000;solid-opacity:1" fill="#fbc24f" class="color000 svgShape"/></svg></svg>