<svg xmlns="http://www.w3.org/2000/svg" xmlns:svgjs="http://svgjs.com/svgjs" xmlns:xlink="http://www.w3.org/1999/xlink" width="288" height="288"><svg xmlns="http://www.w3.org/2000/svg" width="288" height="288" viewBox="0 0 80 80"><path fill="#fbc24f" d="M61 30H47.846l8.036-22.322A2.001 2.001 0 0 0 54 5H30a2 2 0 0 0-1.897 1.367l-11 33A2 2 0 0 0 19 42h15.304l-9.218 30.42a2 2 0 0 0 3.454 1.856l34-41A2 2 0 0 0 61 30zM31.79 64.092l7.124-23.512A2 2 0 0 0 37 38H21.775l9.666-29h19.713l-8.036 22.322A2.001 2.001 0 0 0 45 34h11.743L31.79 64.092z" class="color000 svgShape"/></svg></svg>